<svg width="38" height="38" viewBox="0 0 38 38" fill="none" xmlns="http://www.w3.org/2000/svg">
<path d="M37.4242 19.2169C37.4242 9.03857 29.195 0.787598 19.0436 0.787598C8.89227 0.787598 0.663086 9.03857 0.663086 19.2169C0.663086 29.3951 8.89227 37.6461 19.0436 37.6461C29.195 37.6461 37.4242 29.3951 37.4242 19.2169Z" fill="#89C8FD"/>
<path d="M19.0436 0.787598C18.1003 0.787598 17.1732 0.858948 16.2682 0.996521C25.1024 2.33807 31.873 9.9845 31.873 19.2169C31.873 28.4492 25.1024 36.0956 16.2682 37.4372C17.1732 37.5748 18.1003 37.6461 19.0436 37.6461C29.195 37.6461 37.4242 29.3951 37.4242 19.2169C37.4242 9.03857 29.195 0.787598 19.0436 0.787598Z" fill="#60B6FF"/>
<path d="M16.6544 7.94989C13.823 9.72424 11.6992 12.5629 13.292 15.757C14.8847 18.9506 18.4241 17.7086 21.698 17.2651C24.972 16.8217 22.4944 26.9354 24.441 29.4194C26.3875 31.9034 31.8733 26.9354 31.3427 23.7413C30.5566 19.0126 30.281 17.3536 36.6517 13.9826L36.6687 13.9762C34.5214 6.7049 28.0213 1.30963 20.1946 0.824707L20.1937 0.852478C20.1937 0.852478 19.4858 6.17554 16.6544 7.94989Z" fill="#BAEB6C"/>
<path d="M30.5596 4.854C30.5609 4.85486 30.5622 4.85614 30.5635 4.85699C30.5622 4.85614 30.5609 4.85529 30.5596 4.854Z" fill="#BAEB6C"/>
<path d="M32.8074 7.00391C32.8074 7.00433 32.8078 7.00476 32.8082 7.00476C32.8078 7.00433 32.8078 7.00433 32.8074 7.00391Z" fill="#BAEB6C"/>
<path d="M6.83295 27.5563C5.98273 26.2596 8.33728 23.2095 8.86792 20.9028C9.39899 18.5961 6.21344 18.7734 5.24017 17.9749C4.26691 17.1764 2.93945 13.7166 1.96619 12.918L1.81067 12.7954C1.06897 14.7949 0.663086 16.9585 0.663086 19.2169C0.663086 25.3086 3.61108 30.709 8.15442 34.0641L8.15997 33.6779C8.15997 33.6779 8.86792 30.6616 6.83295 27.5563Z" fill="#BAEB6C"/>
<path d="M31.3428 23.7414C31.3389 23.7183 31.3351 23.6957 31.3312 23.6726C30.9796 25.0932 30.4635 26.4489 29.8043 27.7178C30.8497 26.4839 31.5483 24.9796 31.3428 23.7414Z" fill="#BAEB6C"/>
<path d="M20.1946 0.824707L20.1938 0.852478C20.1938 0.852478 20.1348 1.29681 19.9827 1.97058C26.4282 4.41016 31.1471 10.3771 31.7965 17.524C32.6087 16.4132 34.0942 15.3357 36.6517 13.9826L36.6688 13.9762C34.5215 6.7049 28.0214 1.30963 20.1946 0.824707Z" fill="#96D629"/>
</svg>
